<?xml version="1.0" standalone="no"?>
<!DOCTYPE svg PUBLIC "-//W3C//DTD SVG 20010904//EN"
 "http://www.w3.org/TR/2001/REC-SVG-20010904/DTD/svg10.dtd">
<svg version="1.0" xmlns="http://www.w3.org/2000/svg"
 width="16.000000pt" height="16.000000pt" viewBox="0 0 16.000000 16.000000"
 preserveAspectRatio="xMidYMid meet">
<metadata>
Created by potrace 1.11, written by Peter Selinger 2001-2013
</metadata>
<g transform="translate(0.000000,16.000000) scale(0.000729,-0.000729)"
fill="#000000" stroke="none">
<path d="M10265 21894 c-126 -35 -239 -66 -250 -69 -11 -2 -29 -6 -40 -9 -11
-2 -42 -9 -70 -16 -155 -35 -378 -107 -565 -182 -101 -41 -340 -156 -410 -198
-111 -66 -251 -154 -315 -198 -77 -54 -325 -239 -335 -251 -3 -3 -52 -46 -110
-95 -262 -223 -545 -541 -737 -827 -50 -74 -183 -295 -183 -304 0 -2 -13 -26
-28 -52 -16 -26 -30 -51 -31 -55 -1 -4 -22 -52 -47 -105 -116 -249 -222 -561
-278 -823 -9 -41 -19 -86 -22 -100 -6 -30 -10 -50 -19 -115 -4 -27 -9 -59 -11
-70 -2 -11 -6 -40 -9 -65 -3 -25 -8 -54 -10 -65 -2 -11 -7 -56 -10 -100 -3
-44 -8 -91 -10 -104 -16 -97 -20 -776 -19 -3781 0 -2992 3 -3581 19 -3707 2
-16 6 -66 10 -113 4 -47 9 -88 10 -91 2 -3 7 -28 10 -55 16 -123 50 -294 90
-454 44 -172 119 -398 181 -544 34 -80 175 -367 212 -431 252 -444 628 -876
1097 -1264 108 -89 295 -220 435 -304 52 -32 102 -62 110 -67 116 -74 598
-287 710 -314 8 -2 61 -18 118 -35 218 -65 466 -115 667 -136 33 -3 71 -8 85
-10 140 -24 793 -24 917 -1 10 2 50 7 88 11 39 3 108 13 155 21 47 7 101 16
120 18 19 3 42 7 50 10 8 3 31 7 50 10 49 8 160 36 360 91 52 14 270 92 335
120 138 59 195 85 295 136 221 114 375 210 595 374 44 32 96 73 116 89 19 17
62 54 94 81 163 137 404 383 550 560 28 33 52 62 55 65 3 3 24 30 48 60 23 30
45 60 50 65 4 6 19 26 32 45 14 19 28 37 31 40 15 13 184 277 240 375 169 295
318 674 384 975 2 8 10 44 19 80 16 70 23 105 32 160 3 19 7 42 9 50 2 8 7 35
10 60 3 25 8 56 10 70 19 122 32 255 41 415 9 163 9 6918 0 7123 -4 89 -9 175
-11 190 -2 15 -6 59 -10 97 -9 109 -36 304 -49 370 -2 11 -12 56 -21 100 -9
44 -19 88 -20 97 -11 52 -69 259 -100 352 -197 596 -529 1118 -1030 1622 -446
448 -883 743 -1405 947 -210 82 -560 185 -719 212 -19 3 -37 7 -40 9 -3 2 -22
7 -41 10 -19 3 -87 19 -150 35 l-115 29 -495 0 -495 0 -230 -64z"/>
<path d="M4155 13509 c-38 -4 -81 -10 -95 -13 -14 -3 -36 -7 -49 -10 -135 -30
-295 -126 -396 -238 -102 -113 -182 -274 -210 -423 -25 -133 -27 -230 -22
-1098 3 -501 7 -957 10 -1012 14 -288 31 -528 43 -615 3 -19 7 -57 9 -85 11
-106 33 -269 59 -420 17 -97 20 -113 36 -190 6 -27 12 -60 15 -73 2 -13 6 -31
9 -40 3 -9 7 -33 10 -52 4 -19 11 -53 17 -75 6 -22 12 -47 13 -55 35 -183 231
-791 321 -995 7 -16 32 -75 55 -130 46 -109 235 -495 301 -615 141 -254 358
-593 527 -825 131 -179 354 -459 452 -565 219 -240 374 -399 541 -555 73 -69
115 -106 233 -208 12 -10 35 -31 51 -45 36 -33 304 -247 360 -288 22 -16 42
-31 45 -34 3 -3 46 -35 95 -71 176 -127 413 -281 600 -389 306 -177 659 -348
960 -464 33 -13 69 -27 80 -31 11 -5 22 -9 25 -10 3 -1 19 -7 35 -14 32 -13
413 -142 430 -145 6 -1 37 -10 70 -20 33 -10 67 -20 75 -21 8 -2 42 -11 75
-20 73 -20 252 -65 280 -71 20 -4 50 -11 83 -18 9 -2 67 -14 127 -25 61 -12
129 -26 152 -31 23 -6 61 -12 85 -15 24 -3 54 -7 68 -10 14 -3 39 -7 55 -9 17
-3 71 -12 122 -21 51 -8 110 -18 133 -21 22 -3 53 -9 68 -13 l27 -7 0 -810 c0
-445 -4 -826 -8 -847 -17 -78 77 -72 -1192 -75 -1718 -3 -2297 -7 -2330 -15
-222 -54 -383 -149 -504 -299 -81 -99 -151 -251 -176 -378 -12 -59 -14 -252
-5 -305 43 -229 177 -411 406 -553 175 -108 189 -117 219 -129 23 -9 1065 -12
4442 -12 l4411 -1 75 39 c223 116 345 216 444 365 203 304 156 747 -111 1025
-60 62 -168 141 -241 176 -67 31 -205 71 -275 79 -30 4 -797 7 -1705 7 -1264
0 -1658 3 -1684 12 -19 7 -44 25 -55 40 -21 28 -21 33 -23 846 -1 450 2 823 6
829 3 6 47 18 96 26 50 9 101 18 115 21 14 3 45 8 70 11 25 3 52 7 60 9 8 2
35 7 60 10 138 19 293 48 490 92 85 19 166 36 180 39 14 3 34 8 45 11 23 8 31
10 64 17 103 23 601 177 666 206 11 5 74 30 140 56 542 214 1088 534 1720
1008 115 86 417 326 480 381 199 174 257 229 414 385 440 439 852 979 1157
1516 15 27 45 81 67 119 128 226 350 691 433 910 75 199 135 372 174 505 12
41 26 86 31 100 5 14 11 34 13 45 3 11 17 65 31 120 15 55 29 111 31 125 3 14
8 34 11 45 4 11 8 25 9 31 1 5 15 77 32 160 17 82 36 176 42 209 5 33 12 69
14 80 2 11 7 49 12 85 4 36 8 67 9 70 1 3 5 32 9 65 5 33 10 67 11 76 2 9 6
52 10 95 4 43 9 86 10 95 2 8 6 55 10 105 3 49 8 109 11 133 15 169 19 451 19
1296 0 528 -2 996 -4 1040 -16 331 -225 627 -521 738 -173 64 -411 74 -567 23
-83 -27 -180 -76 -243 -124 -36 -27 -133 -122 -160 -157 -59 -76 -141 -252
-142 -305 0 -3 -4 -14 -8 -26 -5 -12 -11 -48 -15 -80 -3 -32 -8 -72 -10 -89
-7 -49 -15 -506 -20 -1205 -7 -787 -11 -973 -30 -1175 -18 -196 -22 -233 -35
-315 -5 -30 -12 -73 -15 -95 -3 -22 -7 -47 -10 -55 -2 -8 -6 -33 -10 -55 -3
-22 -7 -47 -10 -55 -2 -8 -7 -27 -10 -42 -12 -65 -17 -86 -31 -147 -34 -150
-133 -467 -195 -626 -13 -33 -24 -62 -24 -65 -1 -3 -5 -14 -10 -25 -16 -37
-72 -170 -96 -225 -42 -98 -213 -432 -283 -550 -262 -448 -566 -840 -946
-1221 -107 -107 -231 -226 -275 -265 -44 -38 -89 -77 -100 -87 -59 -55 -236
-196 -350 -280 -71 -53 -135 -100 -141 -105 -5 -5 -21 -15 -35 -22 -13 -7 -26
-16 -29 -19 -5 -6 -80 -56 -200 -133 -439 -282 -1038 -536 -1600 -678 -150
-38 -181 -45 -245 -56 -16 -3 -57 -11 -90 -19 -33 -7 -80 -16 -105 -20 -25 -3
-67 -10 -95 -15 -45 -8 -93 -15 -176 -25 -15 -2 -55 -7 -90 -10 -35 -3 -80 -8
-99 -10 -193 -20 -797 -28 -1000 -12 -158 13 -213 18 -245 22 -16 2 -57 7 -90
10 -33 3 -69 8 -80 10 -11 2 -42 7 -70 10 -27 3 -90 12 -140 21 -76 12 -129
23 -305 59 -8 2 -35 8 -60 14 -25 7 -53 13 -62 16 -651 154 -1432 530 -2003
964 -95 72 -297 235 -350 282 -27 24 -76 68 -109 98 -86 76 -368 360 -458 461
-150 167 -337 399 -447 555 -99 140 -321 486 -321 501 0 2 -14 26 -30 54 -84
143 -220 430 -304 644 -141 357 -243 714 -301 1051 -4 22 -9 51 -11 65 -3 14
-7 36 -9 50 -3 14 -9 61 -15 105 -6 44 -13 96 -15 115 -3 19 -7 58 -9 85 -3
28 -7 73 -10 100 -12 114 -21 233 -32 445 -5 99 -12 682 -18 1445 -5 598 -7
622 -71 762 -77 168 -199 296 -370 388 -37 20 -74 38 -83 40 -10 2 -35 10 -58
18 -37 14 -138 32 -219 39 -16 2 -61 0 -100 -3z"/>
</g>
</svg>
