<?xml version="1.0" standalone="no"?>
<!DOCTYPE svg PUBLIC "-//W3C//DTD SVG 20010904//EN"
 "http://www.w3.org/TR/2001/REC-SVG-20010904/DTD/svg10.dtd">
<svg version="1.0" xmlns="http://www.w3.org/2000/svg"
 width="270.000000pt" height="270.000000pt" viewBox="0 0 270.000000 270.000000"
 preserveAspectRatio="xMidYMid meet">
<metadata>
Created by potrace 1.11, written by Peter Selinger 2001-2013
</metadata>
<g transform="translate(0.000000,270.000000) scale(0.100000,-0.100000)"
fill="#000000" stroke="none">
<path d="M10 1350 l0 -1340 1340 0 1340 0 0 1340 0 1340 -1340 0 -1340 0 0
-1340z m1734 1068 l381 -211 255 -420 c140 -230 256 -425 258 -432 2 -7 -112
-201 -252 -431 -141 -231 -257 -422 -258 -425 -4 -8 -766 -429 -777 -429 -13
0 -775 422 -779 431 -2 4 -118 195 -258 425 -140 229 -254 421 -254 425 0 8
503 838 517 853 14 15 758 425 772 426 8 0 185 -95 395 -212z"/>
<path d="M1337 2568 c-107 -166 -354 -579 -349 -582 90 -52 355 -196 363 -196
11 0 349 186 360 198 4 4 -76 141 -177 305 -177 290 -183 298 -197 275z"/>
<path d="M962 2387 c-188 -105 -339 -194 -335 -198 5 -4 81 -48 170 -97 l162
-90 172 281 c191 313 181 297 177 296 -2 0 -157 -86 -346 -192z"/>
<path d="M1392 2575 c200 -329 351 -570 356 -568 12 3 317 174 325 182 4 4
-133 86 -305 181 -172 96 -328 183 -347 194 -19 11 -32 16 -29 11z"/>
<path d="M557 2124 c-13 -22 -63 -104 -112 -184 -48 -80 -144 -237 -212 -349
l-125 -204 44 25 c24 14 183 103 354 197 l312 172 -111 182 c-60 100 -113 186
-118 191 -4 4 -18 -9 -32 -30z"/>
<path d="M2001 1974 c-95 -155 -111 -188 -100 -198 8 -7 147 -86 309 -176 162
-89 315 -174 339 -188 l44 -26 -24 40 c-216 360 -445 733 -449 734 -3 0 -56
-84 -119 -186z"/>
<path d="M630 2144 c1 -14 194 -324 204 -327 8 -2 104 138 105 154 1 4 -59 40
-131 80 -73 40 -143 79 -155 87 -13 8 -23 10 -23 6z"/>
<path d="M1915 2064 c-85 -48 -149 -90 -147 -97 2 -6 24 -45 49 -85 37 -60 48
-71 58 -60 20 21 204 328 197 327 -4 0 -74 -38 -157 -85z"/>
<path d="M910 1874 c-29 -47 -49 -89 -44 -93 13 -12 357 -202 359 -199 49 77
103 173 100 179 -5 7 -349 199 -357 199 -3 0 -29 -39 -58 -86z"/>
<path d="M1555 1864 c-93 -52 -173 -98 -177 -102 -9 -9 96 -178 108 -175 5 1
86 44 179 97 107 59 170 100 169 109 -2 18 -93 167 -103 167 -3 -1 -82 -44
-176 -96z"/>
<path d="M463 1552 c-194 -108 -353 -199 -353 -202 0 -6 697 -393 714 -398 6
-1 66 88 133 198 l122 201 -121 199 c-67 110 -127 200 -133 199 -5 0 -169 -89
-362 -197z"/>
<path d="M1748 1556 c-65 -106 -118 -199 -118 -206 0 -22 235 -400 247 -397
18 3 713 391 713 398 0 6 -705 399 -717 399 -4 0 -61 -87 -125 -194z"/>
<path d="M892 1719 c3 -8 51 -88 106 -177 98 -159 101 -163 115 -140 8 12 31
49 51 81 20 31 36 62 36 67 0 5 -46 34 -102 66 -57 31 -127 70 -157 87 -33 19
-52 25 -49 16z"/>
<path d="M1296 1650 c-27 -44 -47 -82 -45 -84 2 -2 25 -15 51 -30 l47 -28 51
28 c27 15 50 30 50 34 0 12 -92 160 -100 160 -3 0 -28 -36 -54 -80z"/>
<path d="M1655 1645 c-95 -54 -150 -90 -149 -100 2 -15 94 -168 99 -163 15 17
212 348 207 348 -4 -1 -74 -39 -157 -85z"/>
<path d="M1194 1483 c-56 -88 -54 -90 34 -42 45 24 82 47 82 51 0 4 -18 17
-40 28 l-39 20 -37 -57z"/>
<path d="M1428 1519 c-21 -11 -38 -23 -38 -27 0 -6 152 -92 163 -92 3 0 -13
31 -36 70 -23 38 -44 69 -47 69 -3 0 -22 -9 -42 -20z"/>
<path d="M1292 1440 c-80 -49 -59 -173 33 -196 64 -16 135 39 135 103 0 45
-20 77 -60 98 -39 20 -69 19 -108 -5z"/>
<path d="M1177 1381 c-52 -30 -51 -34 10 -65 18 -9 33 -16 35 -16 2 0 3 25 4
55 0 30 0 55 0 54 -1 -1 -23 -13 -49 -28z"/>
<path d="M1475 1351 l0 -56 47 25 c26 14 48 27 48 30 0 3 -22 17 -48 31 l-47
26 0 -56z"/>
<path d="M991 1149 c-57 -93 -102 -172 -100 -174 6 -6 303 163 307 174 4 11
-88 170 -98 171 -3 0 -52 -77 -109 -171z"/>
<path d="M1593 1308 c-20 -24 -93 -148 -93 -157 0 -7 303 -181 315 -181 4 0
-170 289 -200 333 -10 14 -14 15 -22 5z"/>
<path d="M203 1158 c52 -84 154 -252 227 -373 73 -121 138 -226 145 -233 9
-10 36 27 123 171 62 102 112 188 112 193 0 5 -122 77 -272 159 -150 83 -307
169 -350 193 l-79 43 94 -153z"/>
<path d="M2238 1117 c-191 -106 -348 -195 -348 -199 0 -4 51 -91 112 -193 87
-142 115 -182 124 -172 7 6 108 170 225 362 117 193 219 360 227 373 8 12 13
22 11 22 -2 -1 -160 -87 -351 -193z"/>
<path d="M1150 1296 c0 -2 18 -34 41 -70 l41 -65 39 19 c21 11 39 24 39 28 0
4 -33 26 -72 47 -86 47 -88 48 -88 41z"/>
<path d="M1467 1257 c-42 -23 -77 -45 -77 -48 0 -3 18 -15 40 -28 l39 -22 27
43 c14 24 33 54 41 66 8 13 13 25 11 27 -2 2 -38 -15 -81 -38z"/>
<path d="M1300 1164 c-25 -14 -46 -27 -48 -29 -3 -3 72 -129 91 -153 7 -9 22
7 58 65 27 43 49 81 49 85 0 6 -92 58 -102 58 -2 0 -23 -12 -48 -26z"/>
<path d="M1040 1020 c-106 -60 -174 -104 -172 -112 3 -11 88 -156 97 -166 4
-4 345 184 358 197 8 8 -90 182 -102 180 -3 0 -85 -45 -181 -99z"/>
<path d="M1422 1033 c-29 -47 -49 -90 -45 -94 12 -12 355 -201 358 -197 22 23
104 172 98 179 -8 8 -329 188 -348 195 -5 2 -34 -35 -63 -83z"/>
<path d="M1165 814 c-93 -52 -171 -98 -173 -103 -3 -10 345 -585 357 -589 8
-3 361 569 361 586 0 12 -341 202 -361 201 -8 0 -90 -43 -184 -95z"/>
<path d="M731 729 c-57 -93 -102 -172 -100 -173 4 -3 294 156 305 167 5 5 -92
177 -99 177 -1 0 -49 -77 -106 -171z"/>
<path d="M1811 814 c-29 -47 -51 -87 -49 -89 5 -6 310 -175 314 -175 3 0 -175
295 -201 333 -10 15 -18 7 -64 -69z"/>
<path d="M796 610 c-87 -48 -162 -92 -167 -97 -5 -5 145 -94 336 -200 190
-105 344 -188 342 -185 -17 32 -333 550 -341 559 -8 9 -50 -10 -170 -77z"/>
<path d="M1569 417 c-94 -155 -174 -286 -177 -292 -4 -5 5 -3 18 6 14 9 170
96 348 193 177 98 322 181 322 185 0 3 -44 30 -98 58 -53 29 -129 71 -169 93
l-72 40 -172 -283z"/>
</g>
</svg>
