<?xml version="1.0" standalone="no"?>
<!DOCTYPE svg PUBLIC "-//W3C//DTD SVG 20010904//EN"
 "http://www.w3.org/TR/2001/REC-SVG-20010904/DTD/svg10.dtd">
<svg version="1.0" xmlns="http://www.w3.org/2000/svg"
 width="16.000000pt" height="16.000000pt" viewBox="0 0 16.000000 16.000000"
 preserveAspectRatio="xMidYMid meet">
<metadata>
Created by potrace 1.11, written by Peter Selinger 2001-2013
</metadata>
<g transform="translate(0.000000,16.000000) scale(0.000595,-0.000595)"
fill="#000000" stroke="none">
<path d="M12905 25364 c-1249 -66 -2377 -286 -3480 -681 -2082 -745 -3899
-2038 -5295 -3768 -1373 -1703 -2265 -3792 -2535 -5940 -75 -602 -89 -843 -90
-1530 0 -591 5 -717 46 -1150 312 -3335 2027 -6390 4724 -8416 1012 -760 2169
-1368 3365 -1768 1034 -346 2076 -543 3193 -602 299 -16 1205 -6 1472 15 902
73 1644 206 2460 441 1091 314 2164 803 3135 1428 332 214 667 455 979 705
391 313 619 518 997 896 376 377 587 612 895 996 1416 1768 2303 3927 2538
6175 50 480 56 609 56 1270 0 745 -17 1016 -101 1635 -235 1739 -871 3434
-1842 4910 -1651 2511 -4179 4311 -7069 5034 -696 174 -1316 273 -2083 332
-193 15 -1175 28 -1365 18z m1210 -1394 c915 -68 1617 -197 2433 -446 1152
-352 2272 -925 3246 -1663 686 -519 1338 -1151 1872 -1816 1262 -1571 2039
-3441 2263 -5450 48 -425 55 -584 55 -1160 0 -575 -7 -722 -55 -1165 -365
-3345 -2322 -6323 -5263 -8008 -1275 -730 -2706 -1187 -4166 -1331 -416 -41
-526 -46 -1065 -46 -539 0 -649 5 -1065 46 -2251 222 -4379 1176 -6065 2720
-285 261 -662 652 -916 950 -1319 1549 -2170 3473 -2423 5479 -64 501 -81 787
-81 1355 0 570 18 860 81 1355 230 1800 929 3520 2023 4975 602 802 1314 1514
2116 2116 1647 1238 3627 1966 5675 2089 96 6 202 12 235 14 120 7 964 -3
1100 -14z"/>
<path d="M12985 23544 c-27 -2 -129 -8 -225 -14 -1101 -69 -2251 -343 -3285
-785 -989 -423 -1885 -989 -2715 -1716 -199 -175 -670 -641 -842 -834 -616
-694 -1111 -1420 -1513 -2225 -874 -1748 -1219 -3695 -999 -5650 303 -2700
1684 -5159 3839 -6836 1520 -1183 3341 -1903 5255 -2078 573 -53 1251 -53
1840 0 2567 227 4949 1433 6661 3369 1420 1608 2286 3611 2484 5745 40 433 55
1046 36 1420 -113 2200 -895 4229 -2280 5920 -287 351 -812 894 -1143 1182
-1053 918 -2213 1581 -3508 2006 -789 259 -1523 405 -2395 478 -177 14 -1072
28 -1210 18z m955 -844 c610 -34 1217 -127 1795 -274 210 -54 525 -147 525
-155 0 -3 -50 -29 -112 -56 -343 -154 -822 -444 -1200 -728 -527 -395 -1141
-1006 -1566 -1555 -102 -132 -370 -526 -512 -752 -170 -271 -376 -659 -498
-936 -61 -141 -179 -435 -201 -506 l-12 -37 -57 25 c-812 364 -1622 601 -2657
779 -1078 185 -2267 209 -3509 70 -121 -14 -222 -23 -224 -20 -6 6 183 274
334 475 676 896 1513 1666 2462 2264 504 318 1136 632 1672 831 908 338 1838
529 2805 578 158 8 790 6 955 -3z m5701 -2372 c156 -139 548 -533 695 -698
1120 -1261 1865 -2756 2183 -4380 105 -536 153 -982 171 -1595 56 -1861 -493
-3758 -1542 -5328 l-78 -117 -43 0 c-441 2 -1167 279 -1767 675 -252 166 -596
427 -845 640 -593 507 -1258 1336 -1808 2255 -227 380 -353 617 -480 906 -202
458 -619 1374 -822 1804 -95 201 -106 239 -169 575 -46 240 -65 398 -76 614
-29 585 84 1240 296 1727 228 522 651 1127 1143 1637 500 517 1154 926 1848
1156 304 101 696 183 1018 215 77 8 145 14 151 15 6 0 62 -45 125 -101z
m-13764 -1818 c620 -80 1156 -220 1623 -425 461 -203 770 -389 1239 -747 977
-747 1857 -1753 2476 -2832 193 -338 413 -816 750 -1631 137 -332 128 -310
207 -479 l70 -149 -5 -391 c-4 -318 -9 -419 -26 -541 -90 -655 -305 -1244
-632 -1725 -303 -448 -804 -939 -1379 -1351 -818 -587 -1828 -882 -2930 -856
-306 8 -579 33 -835 78 l-62 11 -100 121 c-1354 1655 -2093 3714 -2093 5833 0
1566 373 3064 1096 4404 187 346 404 700 430 700 7 0 84 -9 171 -20z m9263
-9327 c519 -289 1080 -535 1635 -716 917 -300 2038 -445 3161 -409 504 17 757
43 1018 106 l97 23 -17 -26 c-88 -135 -378 -510 -555 -716 -1335 -1559 -3118
-2621 -5122 -3050 -440 -94 -921 -157 -1417 -186 -262 -15 -955 -6 -1210 15
-832 71 -1547 218 -2292 472 -294 101 -886 340 -873 353 2 2 73 7 157 12 146
7 159 10 288 54 478 165 1125 476 1690 813 224 134 610 390 816 540 552 404
1007 833 1450 1367 324 391 678 919 901 1343 l65 123 42 -25 c22 -13 97 -55
166 -93z"/>
</g>
</svg>
