<?xml version="1.0" standalone="no"?>
<!DOCTYPE svg PUBLIC "-//W3C//DTD SVG 20010904//EN"
 "http://www.w3.org/TR/2001/REC-SVG-20010904/DTD/svg10.dtd">
<svg version="1.0" xmlns="http://www.w3.org/2000/svg"
 width="1864.000000pt" height="1864.000000pt" viewBox="0 0 1864.000000 1864.000000"
 preserveAspectRatio="xMidYMid meet">
<metadata>
Created by potrace 1.11, written by Peter Selinger 2001-2013
</metadata>
<g transform="translate(0.000000,1864.000000) scale(0.100000,-0.100000)"
fill="#000000" stroke="none">
<path d="M8989 18296 c-2 -2 -65 -7 -139 -10 -74 -3 -155 -8 -180 -10 -47 -5
-161 -15 -240 -22 -25 -2 -58 -6 -75 -8 -16 -3 -61 -8 -100 -11 -38 -4 -72 -8
-75 -10 -3 -2 -37 -6 -75 -10 -39 -4 -72 -9 -75 -10 -3 -2 -29 -6 -59 -10 -30
-4 -63 -9 -75 -11 -12 -2 -37 -6 -56 -9 -19 -3 -46 -7 -60 -10 -14 -3 -50 -9
-80 -15 -155 -28 -349 -71 -510 -111 -85 -22 -166 -42 -180 -45 -14 -2 -40 -9
-58 -15 -18 -6 -41 -12 -50 -14 -9 -2 -17 -4 -17 -5 0 -1 -7 -3 -16 -5 -124
-24 -799 -260 -976 -341 -17 -8 -34 -14 -38 -14 -4 0 -36 -13 -72 -30 -35 -16
-66 -30 -69 -30 -2 0 -32 -13 -66 -30 -34 -16 -67 -30 -75 -30 -7 0 -13 -4
-13 -10 0 -5 -6 -10 -14 -10 -18 0 -439 -210 -448 -224 -4 -6 -8 -8 -8 -4 0 4
-46 -19 -102 -51 -57 -32 -125 -70 -151 -84 -52 -29 -76 -44 -152 -92 -27 -18
-60 -36 -72 -39 -13 -4 -23 -11 -23 -15 0 -3 -15 -15 -32 -25 -60 -34 -163
-101 -182 -118 -11 -10 -23 -18 -28 -18 -4 0 -38 -21 -76 -47 -37 -26 -89 -62
-117 -81 -129 -90 -533 -399 -565 -432 -3 -3 -30 -25 -60 -50 -30 -25 -62 -52
-71 -60 -8 -8 -33 -30 -55 -49 -256 -220 -560 -523 -849 -847 -31 -34 -150
-176 -170 -202 -5 -7 -22 -26 -37 -42 -16 -15 -28 -33 -28 -38 0 -6 -4 -12 -8
-14 -5 -1 -49 -55 -98 -118 -49 -63 -92 -116 -96 -118 -5 -2 -8 -10 -8 -17 0
-7 -4 -15 -8 -17 -4 -1 -23 -25 -42 -53 -46 -66 -46 -65 -75 -101 -14 -18 -25
-36 -25 -42 0 -5 -7 -13 -16 -16 -8 -3 -13 -10 -10 -15 4 -5 3 -11 -2 -13 -11
-4 -102 -137 -102 -148 0 -6 -4 -10 -8 -10 -5 0 -15 -12 -23 -27 -7 -16 -24
-42 -36 -59 -13 -17 -23 -34 -23 -38 0 -4 -4 -12 -10 -19 -21 -25 -85 -127
-140 -222 -10 -16 -40 -68 -67 -115 -27 -47 -52 -92 -56 -100 -4 -8 -17 -31
-28 -50 -12 -19 -48 -87 -81 -150 -33 -63 -64 -119 -68 -125 -5 -5 -9 -13 -9
-17 -1 -4 -35 -77 -76 -162 -65 -135 -222 -492 -240 -546 -2 -6 -19 -50 -38
-95 -6 -16 -12 -32 -13 -35 -1 -6 -13 -38 -24 -65 -23 -55 -165 -468 -169
-490 -1 -5 -9 -35 -18 -65 -10 -30 -17 -57 -18 -60 0 -3 -4 -11 -8 -17 -5 -7
-6 -13 -3 -13 3 0 -1 -18 -9 -40 -8 -22 -15 -42 -15 -45 0 -3 -2 -10 -5 -17
-9 -29 -85 -339 -100 -408 -9 -41 -19 -84 -21 -95 -11 -44 -20 -89 -30 -145
-6 -34 -10 -52 -18 -87 -2 -10 -7 -38 -11 -63 -8 -51 -12 -74 -20 -110 -2 -14
-7 -38 -9 -55 -3 -16 -7 -43 -10 -60 -3 -16 -8 -50 -10 -75 -3 -25 -7 -54 -10
-65 -2 -11 -7 -45 -10 -76 -4 -31 -8 -66 -11 -76 -2 -11 -6 -56 -10 -99 -4
-43 -9 -87 -11 -97 -1 -10 -6 -61 -9 -115 -4 -53 -9 -105 -11 -115 -25 -133
-25 -1070 1 -1337 2 -19 6 -75 10 -123 3 -48 8 -96 10 -105 1 -9 6 -48 10 -87
4 -38 9 -86 12 -105 2 -19 6 -48 8 -65 8 -76 20 -154 52 -340 43 -252 42 -246
60 -330 8 -38 16 -79 19 -90 16 -80 47 -215 55 -241 5 -17 11 -40 13 -50 2
-10 12 -48 21 -84 9 -36 19 -72 20 -80 2 -8 18 -62 35 -120 18 -58 35 -118 39
-135 28 -106 216 -637 268 -755 8 -19 22 -49 29 -67 8 -17 14 -34 14 -38 0 -7
3 -14 69 -158 23 -49 41 -91 41 -92 0 -2 30 -66 67 -142 37 -76 67 -140 68
-143 0 -3 28 -58 63 -123 34 -65 62 -123 62 -128 0 -5 5 -9 10 -9 6 0 10 -5
10 -11 0 -7 37 -75 81 -153 45 -77 89 -155 99 -172 10 -17 24 -42 32 -55 7
-12 16 -28 21 -33 25 -35 87 -138 87 -146 0 -4 3 -10 8 -12 8 -3 62 -84 62
-93 0 -3 10 -16 21 -29 12 -14 27 -34 33 -45 16 -30 130 -193 198 -284 32 -43
58 -80 58 -83 0 -3 6 -11 13 -18 6 -7 23 -28 37 -46 14 -18 31 -39 38 -47 7
-7 11 -13 9 -13 -5 0 32 -46 66 -81 9 -11 17 -22 17 -27 0 -4 16 -24 35 -44
19 -20 35 -39 35 -42 0 -3 12 -18 28 -34 15 -16 36 -40 46 -53 19 -24 112
-134 131 -155 65 -74 178 -197 210 -230 147 -153 286 -291 384 -382 159 -150
173 -162 225 -206 26 -21 60 -51 75 -65 37 -34 59 -53 156 -131 44 -35 91 -75
105 -87 14 -13 28 -23 31 -23 3 0 19 -11 35 -25 16 -14 34 -29 39 -33 45 -33
101 -78 103 -84 2 -5 8 -8 14 -8 9 0 27 -13 85 -60 17 -14 88 -64 153 -107 30
-21 57 -40 60 -43 11 -12 101 -70 109 -70 4 0 16 -9 26 -20 10 -11 24 -20 31
-20 7 0 14 -4 16 -8 3 -7 226 -149 305 -193 17 -10 49 -29 70 -42 21 -13 67
-40 103 -59 137 -75 165 -91 178 -101 6 -5 12 -6 12 -1 0 5 4 4 8 -2 7 -12
420 -216 562 -279 47 -20 93 -41 102 -46 10 -5 25 -9 33 -9 8 0 15 -4 15 -10
0 -5 19 -14 41 -20 23 -6 49 -15 58 -20 36 -19 164 -69 366 -144 98 -36 465
-157 495 -162 14 -3 44 -12 67 -19 45 -15 451 -121 493 -129 14 -2 55 -11 91
-20 37 -8 79 -17 93 -20 14 -3 63 -12 108 -21 84 -18 93 -19 163 -29 22 -3 63
-10 90 -16 28 -5 68 -12 90 -15 88 -13 172 -24 220 -30 28 -4 61 -8 75 -10 14
-2 56 -7 95 -10 38 -4 78 -9 88 -11 11 -2 60 -6 111 -9 50 -3 105 -8 121 -10
142 -19 910 -28 1150 -12 198 12 258 16 305 22 25 3 77 8 115 11 110 10 211
21 255 29 14 3 48 7 76 10 28 3 60 7 71 9 12 3 43 8 70 12 26 3 57 8 68 10 10
2 37 6 60 9 22 3 47 8 55 10 8 2 31 7 50 10 19 3 42 8 50 10 8 3 35 7 59 10
24 3 47 8 51 10 4 3 25 7 46 11 22 3 55 9 74 14 19 5 46 11 60 14 14 3 36 7
50 10 44 10 343 85 420 107 41 11 80 22 85 23 67 16 539 171 570 187 12 5 27
11 35 13 8 1 31 9 51 18 20 9 47 19 60 23 52 16 404 164 529 222 52 25 111 52
130 60 89 40 375 187 502 259 43 24 82 44 88 44 5 0 10 5 10 10 0 6 4 10 10
10 13 0 314 183 450 274 58 39 107 70 110 71 3 0 12 6 20 13 14 12 165 119
215 152 24 16 34 24 158 118 134 102 179 136 191 147 6 6 34 28 61 50 28 21
52 42 55 45 3 3 32 27 65 54 33 27 65 54 70 60 6 6 39 36 74 66 36 30 77 66
92 80 14 14 72 68 129 120 56 52 108 101 114 108 6 7 22 23 34 35 62 57 264
268 357 372 39 43 84 93 100 111 17 18 59 68 95 111 35 43 67 80 70 83 3 3 32
39 65 80 33 41 65 80 70 87 6 6 21 26 35 44 14 18 31 38 38 45 6 7 12 15 12
19 0 6 58 84 71 95 3 3 39 52 79 110 41 58 79 108 85 112 5 4 6 8 2 8 -5 0 -2
7 5 15 25 27 34 40 53 73 11 17 23 32 27 32 4 0 8 4 8 10 0 8 43 77 156 250
59 92 163 270 156 270 -4 0 -2 4 4 8 32 21 351 644 440 859 9 21 25 57 35 80
10 23 19 44 19 47 0 3 11 29 24 58 24 54 37 86 34 91 -1 1 5 13 12 27 8 14 15
27 16 30 0 3 4 12 7 20 10 23 77 203 82 220 3 8 34 99 69 203 35 103 61 187
59 187 -3 0 -1 6 5 13 10 12 27 76 24 90 -1 4 3 7 10 7 6 0 9 3 5 6 -3 3 1 27
9 52 16 52 53 187 59 215 2 10 7 27 10 37 3 10 8 28 10 39 8 33 12 51 34 141
21 87 50 219 56 255 2 11 9 45 15 75 6 30 13 66 16 80 2 14 9 48 14 75 13 70
19 103 26 155 3 25 8 52 9 62 2 9 6 38 10 65 4 26 9 59 11 73 2 14 7 49 10 79
3 30 7 62 9 72 2 10 7 49 10 86 4 37 8 79 10 93 2 14 7 66 10 115 4 50 8 102
10 117 27 225 27 1074 0 1343 -3 22 -6 70 -9 106 -6 75 -15 170 -21 214 -2 17
-7 57 -10 90 -4 33 -8 71 -11 85 -2 14 -6 45 -10 70 -3 25 -9 70 -14 100 -5
30 -12 73 -15 94 -3 21 -7 48 -10 60 -2 12 -7 37 -9 56 -3 19 -19 105 -36 190
-17 85 -34 166 -36 180 -3 14 -19 81 -35 150 -17 69 -32 132 -34 140 -1 8 -10
42 -20 75 -9 33 -18 70 -20 82 -2 12 -6 27 -10 32 -3 6 -8 21 -10 33 -5 26
-54 197 -62 218 -4 8 -7 17 -7 20 -1 3 -5 11 -9 18 -5 6 -6 12 -3 12 5 0 -83
262 -129 385 -14 39 -32 88 -39 110 -8 22 -22 58 -32 80 -9 22 -19 45 -20 51
-1 6 -9 27 -17 45 -8 19 -38 90 -67 159 -29 69 -66 153 -81 188 -16 34 -29 67
-29 72 0 6 -4 10 -10 10 -5 0 -10 7 -10 15 0 28 -247 505 -362 698 -32 55 -58
101 -58 103 0 3 -16 28 -35 57 -19 28 -35 57 -35 64 0 6 -3 13 -7 15 -11 4
-63 86 -63 98 0 5 -3 10 -8 10 -4 0 -18 20 -32 45 -14 25 -28 45 -32 45 -5 0
-8 5 -8 10 0 6 -12 28 -27 49 -16 21 -33 47 -40 57 -25 38 -203 290 -225 318
-13 15 -27 37 -32 47 -5 11 -12 19 -16 19 -4 0 -24 25 -45 55 -20 30 -41 55
-46 55 -5 0 -9 6 -9 14 0 8 -3 16 -8 18 -4 2 -23 23 -42 48 -19 25 -40 51 -47
58 -7 7 -29 34 -50 60 -21 26 -40 49 -43 52 -3 3 -30 34 -60 70 -30 36 -68 79
-85 96 -16 18 -39 43 -50 57 -36 45 -266 286 -380 397 -120 118 -157 153 -261
247 -110 100 -137 123 -178 156 -21 18 -46 39 -55 48 -9 8 -43 37 -76 65 -33
27 -65 54 -71 59 -7 6 -25 20 -40 32 -16 12 -74 58 -129 101 -55 43 -156 118
-225 168 -69 49 -126 92 -128 97 -2 4 -8 7 -14 7 -6 0 -27 14 -48 30 -21 17
-42 30 -48 30 -6 0 -12 3 -14 8 -4 9 -96 72 -106 72 -5 0 -18 9 -30 20 -12 12
-22 17 -22 13 0 -4 -4 -3 -8 2 -4 6 -32 26 -62 45 -30 19 -57 37 -60 40 -7 8
-41 28 -75 45 -16 8 -39 20 -50 27 -11 7 -38 25 -60 39 -22 14 -56 33 -75 43
-19 9 -48 25 -65 36 -29 18 -83 47 -198 108 -31 16 -64 35 -72 42 -8 7 -15 9
-15 6 0 -4 -13 2 -29 13 -16 12 -32 21 -35 21 -4 0 -73 33 -154 72 -81 40
-149 73 -152 73 -3 0 -23 9 -45 19 -22 10 -59 27 -82 37 -24 11 -62 28 -86 39
-24 11 -46 20 -50 20 -4 0 -26 9 -50 19 -78 36 -168 72 -321 127 -83 30 -158
58 -166 61 -8 4 -17 7 -20 8 -3 0 -63 20 -135 44 -71 24 -136 45 -145 47 -8 2
-82 23 -165 48 -132 39 -476 128 -537 140 -13 2 -70 14 -128 26 -125 26 -135
28 -180 36 -19 3 -55 9 -80 14 -25 5 -61 12 -80 15 -19 2 -48 7 -65 10 -53 9
-89 15 -130 20 -22 3 -53 7 -70 10 -16 3 -50 7 -75 10 -25 3 -61 7 -80 10 -53
7 -108 13 -180 20 -36 3 -81 8 -100 10 -19 2 -80 7 -135 11 -55 4 -118 8 -140
11 -51 5 -872 13 -876 9z"/>
</g>
</svg>
